PathFileType	4	(X/Y/Z)	/Users/itak/Documents/Research/Walk-IL/dataset/trc/00381_00012.trc
DataRate	CameraRate	NumFrames	NumMarkers	Units	OrigDataRate	OrigDataStartFrame	OrigNumFrames
100.000000	100.000000	4	54	mm	100.000000	365	487
Frame#	Time	RPSI			LPSI			L3			STRN			T10			C7			CLAV			RBAK			LBAK			LSHO			LUPA			LAEL			LAOL			LWTS			LWPS			LFRA			LHPS			LHTS			RSHO			RUPA			RAEL			RAOL			RWTS			RWPS			RFRA			RIFD			RHPS			RBHD			LFHD			RFHD			LBHD			LHIP			RASI			LASI			LKNE			LTHI			LANK			LTIP			LTOE			LMT1			LMT5			LHEE			RKNE			RTHI			RANK			RTIP			RTOE			RMT1			RMT5			RHEE			RHTS			RHIP			LIFD			*53			
		X1	Y1	Z1	X2	Y2	Z2	X3	Y3	Z3	X4	Y4	Z4	X5	Y5	Z5	X6	Y6	Z6	X7	Y7	Z7	X8	Y8	Z8	X9	Y9	Z9	X10	Y10	Z10	X11	Y11	Z11	X12	Y12	Z12	X13	Y13	Z13	X14	Y14	Z14	X15	Y15	Z15	X16	Y16	Z16	X17	Y17	Z17	X18	Y18	Z18	X19	Y19	Z19	X20	Y20	Z20	X21	Y21	Z21	X22	Y22	Z22	X23	Y23	Z23	X24	Y24	Z24	X25	Y25	Z25	X26	Y26	Z26	X27	Y27	Z27	X28	Y28	Z28	X29	Y29	Z29	X30	Y30	Z30	X31	Y31	Z31	X32	Y32	Z32	X33	Y33	Z33	X34	Y34	Z34	X35	Y35	Z35	X36	Y36	Z36	X37	Y37	Z37	X38	Y38	Z38	X39	Y39	Z39	X40	Y40	Z40	X41	Y41	Z41	X42	Y42	Z42	X43	Y43	Z43	X44	Y44	Z44	X45	Y45	Z45	X46	Y46	Z46	X47	Y47	Z47	X48	Y48	Z48	X49	Y49	Z49	X50	Y50	Z50	X51	Y51	Z51	X52	Y52	Z52	X53	Y53	Z53	X54	Y54	Z54	

366	3.65	735.0890502929688	931.162109375	149.8734893798828	716.8916015625	934.007080078125	20.3784065246582	720.2421264648438	1007.245788574219	84.904052734375	941.3857421875	1178.832885742188	77.6715087890625	698.857177734375	1109.279541015625	75.02928161621094	720.1478881835938	1360.017700195312	58.9758186340332	878.1141967773438	1292.514892578125	76.18430328369141	679.295654296875	1211.0419921875	118.7916488647461	709.1856689453125	1323.20458984375	-42.43101119995117	796.5346069335938	1345.872680664062	-89.62017059326172	774.8074951171875	1224.892944335938	-157.1228637695312	804.55517578125	1042.5283203125	-187.9414215087891	758.8572387695312	998.9608764648438	-128.5549163818359	1010.541198730469	1004.383239746094	-166.9088592529297	991.3871459960938	957.1356201171875	-232.3056640625	872.6139526367188	993.6948852539062	-207.4454956054688	1074.684936523438	930.4930419921875	-234.5311279296875	1102.255126953125	976.8248291015625	-198.5955963134766	762.9284057617188	1340.5634765625	220.3298034667969	734.5415649414062	1280.505004882812	268.7262878417969	666.3095092773438	1031.30224609375	285.3939819335938	685.215087890625	1022.868835449219	190.5708770751953	721.1309204101562	785.349609375	287.8792114257812	662.3439331054688	794.3770141601562	331.343994140625	665.4429931640625	963.390380859375	307.484130859375	650.91796875	627.0317993164062	274.36572265625	631.1981201171875	709.9273681640625	326.0797119140625	738.6814575195312	1548.076416015625	131.1360931396484	919.838623046875	1560.342895507812	49.83119201660156	868.7675170898438	1562.606689453125	163.3851165771484	789.7937622070312	1542.150268554688	-21.00369071960449	788.60693359375	930.715576171875	-105.4263610839844	955.580078125	933.4129028320312	178.05029296875	906.4876098632812	927.1824951171875	-83.24375915527344	786.8070678710938	438.2687683105469	-57.64593505859375	796.7635498046875	581.132568359375	-81.04952239990234	527.3466796875	65.11963653564453	-2.086654663085938	654.171142578125	238.0014190673828	-41.0276985168457	733.302001953125	34.18606567382812	76.86221313476562	651.9605712890625	46.74263763427734	99.91548156738281	650.0178833007812	36.83401107788086	-3.99502158164978	486.0615844726562	81.23054504394531	49.97455215454102	1031.652587890625	460.538330078125	201.2405090332031	961.4721069335938	710.0257568359375	235.662841796875	1129.374633789062	46.09840393066406	162.859619140625	1083.856201171875	346.0179138183594	183.6039886474609	1299.506103515625	63.67438125610352	89.63831329345703	1225.672729492188	53.59099960327148	63.28103637695312	1214.25927734375	44.77449798583984	161.5873260498047	1057.215454101562	24.11714172363281	109.8240356445312	689.8917846679688	681.608154296875	303.9943237304688	834.368896484375	909.7247924804688	250.9669036865234	1168.161499023438	920.86083984375	-191.1713409423828	nan	nan	nan	
367	3.66	745.6766357421875	932.26611328125	150.3912048339844	727.6317749023438	934.0363159179688	20.74432373046875	730.9728393554688	1007.301147460938	85.08268737792969	951.0487670898438	1179.458374023438	77.84317779541016	708.6199340820312	1109.35498046875	75.31586456298828	729.0729370117188	1360.074462890625	59.33634185791016	887.5018310546875	1293.0302734375	76.52145385742188	689.0601806640625	1210.870849609375	119.2230377197266	718.2379150390625	1323.188598632812	-42.05009078979492	805.5157470703125	1345.948852539062	-89.32485198974609	783.70068359375	1224.787475585938	-156.4867248535156	813.3195190429688	1041.809448242188	-187.1465911865234	767.2122192382812	999.2030029296875	-127.3550109863281	1018.973693847656	998.8219604492188	-166.0524291992188	998.540283203125	952.0286865234375	-231.3654479980469	880.8167114257812	991.3798828125	-206.4788665771484	1080.9833984375	922.784912109375	-233.3975067138672	1109.928100585938	968.387451171875	-197.5280303955078	771.9244995117188	1340.733520507812	220.7580108642578	743.9912719726562	1280.3583984375	269.1697082519531	677.9906616210938	1030.558715820312	286.3648376464844	696.7587890625	1022.227600097656	191.4980773925781	735.6060791015625	785.4009399414062	288.8062438964844	676.9558715820312	793.6678466796875	332.5242004394531	677.926025390625	962.6362915039062	308.4935607910156	668.2020263671875	626.0260620117188	276.2379150390625	647.1805419921875	708.759521484375	327.6706848144531	746.6297607421875	1548.251342773438	131.118408203125	928.205322265625	1561.227172851562	50.90963363647461	876.4712524414062	1563.197509765625	164.2460632324219	798.6716918945312	1542.474609375	-20.71666526794434	799.5232543945312	929.90380859375	-104.9069290161133	966.14501953125	934.4635620117188	178.6753234863281	917.2196044921875	926.4370727539062	-82.66675567626953	796.662353515625	437.9372253417969	-56.68201446533203	806.9661254882812	580.4891967773438	-79.82398223876953	529.4564819335938	69.34066772460938	-2.58165717124939	659.607421875	240.2232055664062	-40.7137451171875	733.5757446289062	34.23355484008789	76.73283386230469	653.23779296875	48.28069305419922	99.55469512939453	651.0603637695312	37.17545700073242	-4.181108951568604	488.6484069824219	87.22698211669922	49.48248672485352	1041.046264648438	461.444580078125	201.3035888671875	971.9307861328125	711.272216796875	236.5199279785156	1131.23974609375	45.55275344848633	162.5213775634766	1091.84130859375	346.0529479980469	183.1953125	1302.406494140625	56.49253082275391	88.492919921875	1227.997192382812	49.47845077514648	62.62617874145508	1215.996459960938	41.82035064697266	161.0115051269531	1058.369995117188	25.63951301574707	109.8889846801758	706.0413208007812	681.2723388671875	305.4158630371094	844.8819580078125	911.4768676757812	251.6708526611328	1173.726684570312	909.9471435546875	-189.75244140625	nan	nan	nan	
368	3.67	756.2011108398438	933.677734375	150.7908782958984	738.3646850585938	934.2673950195312	21.00100326538086	741.7316284179688	1007.631958007812	85.15064239501953	960.65576171875	1180.41650390625	77.97171020507812	718.2979125976562	1109.658813476562	75.53823089599609	737.916259765625	1360.380737304688	59.70431518554688	896.787109375	1293.857666015625	76.83516693115234	698.794189453125	1210.966186523438	119.6457443237305	727.1885986328125	1323.447998046875	-41.65844345092773	814.3843383789062	1346.3330078125	-89.02754974365234	792.4882202148438	1225.007446289062	-155.8535919189453	821.9950561523438	1041.383544921875	-186.3230133056641	775.534423828125	999.7974243164062	-126.0939483642578	1027.193725585938	992.9833984375	-165.1648712158203	1005.329956054688	946.8068237304688	-230.4192810058594	888.8582763671875	989.2078857421875	-205.5014038085938	1086.77587890625	914.7547607421875	-232.3176879882812	1117.214111328125	959.4256591796875	-196.4699249267578	780.87109375	1341.199340820312	221.1626586914062	753.4359741210938	1280.491577148438	269.6319885253906	689.9129028320312	1030.04296875	287.4156494140625	708.5131225585938	1021.8212890625	192.4963684082031	750.6304931640625	785.7994995117188	289.8739013671875	692.0546264648438	793.230712890625	333.812744140625	690.7088623046875	962.1276245117188	309.5689086914062	686.2405395507812	625.3151245117188	278.2914123535156	663.821044921875	707.860595703125	329.4161987304688	754.55322265625	1548.682861328125	131.121337890625	936.5115356445312	1562.31298828125	51.94018173217773	884.1832275390625	1564.0146484375	164.9801940917969	807.4723510742188	1543.033813476562	-20.41833305358887	810.43408203125	929.2597045898438	-104.4268264770508	976.6580200195312	935.929931640625	179.3009338378906	927.937255859375	925.9332275390625	-82.05519866943359	806.9951171875	437.72119140625	-55.83951950073242	817.5571899414062	579.9762573242188	-78.67535400390625	531.9895629882812	73.98146057128906	-3.107306241989136	665.5296020507812	242.8912506103516	-40.59395980834961	733.8909301757812	34.28181076049805	76.57221221923828	654.7449340820312	49.94521713256836	99.14365386962891	652.2775268554688	37.55655670166016	-4.420952320098877	491.8127746582031	93.78242492675781	48.9627571105957	1050.180053710938	462.4695434570312	201.6021118164062	982.3321533203125	712.7944946289062	237.4472503662109	1132.908081054688	45.09331893920898	162.3895721435547	1099.414184570312	346.1597290039062	183.1577301025391	1304.790161132812	50.30185699462891	87.551025390625	1229.931518554688	46.20761108398438	62.21604919433594	1217.4482421875	39.35430908203125	160.6984405517578	1059.412109375	26.99151420593262	110.1217880249023	722.74072265625	681.2554931640625	306.9709167480469	855.3115844726562	913.6405029296875	252.2752380371094	1178.596069335938	898.3797607421875	-188.4443664550781	nan	nan	nan	
369	3.68	766.6401977539062	935.345458984375	151.0884399414062	749.0494995117188	934.6900024414062	21.17431831359863	752.4783935546875	1008.200256347656	85.12519836425781	970.18798828125	1181.680541992188	78.05455017089844	727.907470703125	1110.157836914062	75.7008056640625	746.6698608398438	1360.90478515625	60.08139038085938	905.9493408203125	1294.96923828125	77.11690521240234	708.4927368164062	1211.295776367188	120.053581237793	736.0267944335938	1323.95263671875	-41.25676345825195	823.1263427734375	1347.004150390625	-88.72665405273438	801.1688842773438	1225.541748046875	-155.2400970458984	830.554931640625	1041.249633789062	-185.4593658447266	783.7879638671875	1000.733093261719	-124.775146484375	1035.153686523438	986.9029541015625	-164.2164459228516	1011.728149414062	941.5130004882812	-229.4457855224609	896.7181396484375	987.197021484375	-204.5089111328125	1091.999389648438	906.4720458984375	-231.2750701904297	1124.028564453125	949.9868774414062	-195.3958740234375	789.7732543945312	1341.927856445312	221.5356903076172	762.8743896484375	1280.884765625	270.1099243164062	702.0485229492188	1029.740356445312	288.5561218261719	720.4393920898438	1021.642578125	193.5499267578125	766.1878662109375	786.54248046875	291.0934753417969	707.6050415039062	793.0648193359375	335.2077331542969	703.76220703125	961.8594970703125	310.714111328125	704.933837890625	624.914306640625	280.48193359375	681.0518798828125	707.2356567382812	331.2889404296875	762.4415893554688	1549.331420898438	131.1337890625	944.759521484375	1563.56787109375	52.92739105224609	891.8985595703125	1565.045654296875	165.6107788085938	816.2018432617188	1543.79150390625	-20.11239624023438	821.3124389648438	928.7911987304688	-103.9746475219727	987.1028442382812	937.775146484375	179.9307250976562	938.60107421875	925.6802368164062	-81.40230560302734	817.8353271484375	437.6061096191406	-55.19461059570312	828.5390014648438	579.5805053710938	-77.64405822753906	535.0072021484375	79.04454040527344	-3.651325225830078	671.9810791015625	245.9668273925781	-40.66400146484375	734.24951171875	34.32183837890625	76.38142395019531	656.50537109375	51.70867919921875	98.67805480957031	653.6778564453125	37.96689605712891	-4.687024593353271	495.6263122558594	100.868766784668	48.43277740478516	1058.993408203125	463.5318298339844	202.1089782714844	992.6682739257812	714.52099609375	238.4304962158203	1134.359619140625	44.71020889282227	162.4088134765625	1106.5234375	346.2856750488281	183.4378051757812	1306.688842773438	45.14739608764648	86.7982177734375	1231.490478515625	43.73124694824219	62.03022766113281	1218.6240234375	37.40654373168945	160.5908660888672	1060.342163085938	28.1333179473877	110.4838485717773	739.9461059570312	681.5625610351562	308.6472473144531	865.6321411132812	916.1424560546875	252.7942962646484	1182.761474609375	886.3937377929688	-187.3326263427734	nan	nan	nan	
